HIERARCHY
ROOT SpineBase
{
  OFFSET 0.000000 0.000000 0.000000
  CHANNELS 6 Xposition Yposition Zposition Zrotation Xrotation Yrotation
  JOINT SpineMid
  {
    OFFSET 0.000000 34.087197 -0.000000
    CHANNELS 3 Zrotation Xrotation Yrotation
    JOINT SpineShoulder
    {
      OFFSET -0.556994 25.159974 -0.346643
      CHANNELS 3 Zrotation Xrotation Yrotation
      JOINT Neck
      {
        OFFSET -0.263681 8.274077 -0.442287
        CHANNELS 3 Zrotation Xrotation Yrotation
        JOINT Head
        {
          OFFSET -2.306130 12.240510 4.673487
          CHANNELS 3 Zrotation Xrotation Yrotation
          End Site
          {
            OFFSET 0 0 0
          }
        }
      }
      JOINT ShoulderLeft
      {
        OFFSET -12.211986 -8.236698 -14.942933
        CHANNELS 3 Zrotation Xrotation Yrotation
        JOINT ElbowLeft
        {
          OFFSET -0.496947 -24.618720 -4.228890
          CHANNELS 3 Zrotation Xrotation Yrotation
          JOINT WristLeft
          {
            OFFSET -1.097110 -15.669321 21.649711
            CHANNELS 3 Zrotation Xrotation Yrotation
            JOINT HandLeft
            {
              OFFSET -1.110759 -4.290981 -2.751540
              CHANNELS 3 Zrotation Xrotation Yrotation
              JOINT HandTipLeft
              {
                OFFSET -2.078210 -6.441861 1.007384
                CHANNELS 3 Zrotation Xrotation Yrotation
                End Site
                {
                  OFFSET 0 0 0
                }
              }
              JOINT ThumbLeft
              {
                OFFSET -0.256672 6.421510 2.177678
                CHANNELS 3 Zrotation Xrotation Yrotation
                End Site
                {
                  OFFSET 0 0 0
                }
              }
            }
          }
        }
      }
      JOINT ShoulderRight
      {
        OFFSET 0.192601 -7.349422 -14.067735
        CHANNELS 3 Zrotation Xrotation Yrotation
        JOINT ElbowRight
        {
          OFFSET -6.129470 -26.541655 -6.963831
          CHANNELS 3 Zrotation Xrotation Yrotation
          JOINT WristRight
          {
            OFFSET -5.796523 -27.196801 2.412699
            CHANNELS 3 Zrotation Xrotation Yrotation
            JOINT HandRight
            {
              OFFSET 1.299367 -4.052455 1.876652
              CHANNELS 3 Zrotation Xrotation Yrotation
              JOINT HandTipRight
              {
                OFFSET -3.973531 -5.511496 -3.925810
                CHANNELS 3 Zrotation Xrotation Yrotation
                End Site
                {
                  OFFSET 0 0 0
                }
              }
              JOINT ThumbRight
              {
                OFFSET 5.928893 1.193835 -0.278980
                CHANNELS 3 Zrotation Xrotation Yrotation
                End Site
                {
                  OFFSET 0 0 0
                }
              }
            }
          }
        }
      }
    }
  }
  JOINT HipLeft
  {
    OFFSET -8.062227 1.989930 0.015159
    CHANNELS 3 Zrotation Xrotation Yrotation
    JOINT KneeLeft
    {
      OFFSET 17.017112 -40.491659 12.253495
      CHANNELS 3 Zrotation Xrotation Yrotation
      JOINT AnkleLeft
      {
        OFFSET 8.669536 -43.832808 -1.536279
        CHANNELS 3 Zrotation Xrotation Yrotation
        JOINT FootLeft
        {
          OFFSET -8.489038 -6.787974 -7.368033
          CHANNELS 3 Zrotation Xrotation Yrotation
          End Site
          {
            OFFSET 0 0 0
          }
        }
      }
    }
  }
  JOINT HipRight
  {
    OFFSET 6.049376 -0.046099 -7.585311
    CHANNELS 3 Zrotation Xrotation Yrotation
    JOINT KneeRight
    {
      OFFSET -0.274470 -46.728149 3.268627
      CHANNELS 3 Zrotation Xrotation Yrotation
      JOINT AnkleRight
      {
        OFFSET 0.544056 -38.275698 4.063620
        CHANNELS 3 Zrotation Xrotation Yrotation
        JOINT FootRight
        {
          OFFSET -0.008026 -3.987445 -14.554145
          CHANNELS 3 Zrotation Xrotation Yrotation
          End Site
          {
            OFFSET 0 0 0
          }
        }
      }
    }
  }
}
MOTION
Frames: 12
Frame Time: 0.033333
65.414623 92.254854 290.289981 -0.000000 -0.000000 28.306782 0.000000 0.000000 -28.306782 -0.000000 0.000000 0.000000 -0.000000 0.000000 0.000000 0.000000 0.000000 0.000000 -0.000000 0.000000 0.000000 -0.000000 0.000000 0.000000 -0.000000 0.000000 0.000000 -0.000000 0.000000 0.000000 0.000000 0.000000 0.000000 0.000000 0.000000 0.000000 -0.000000 0.000000 0.000000 -0.000000 0.000000 0.000000 -0.000000 0.000000 0.000000 -0.000000 0.000000 0.000000 0.000000 0.000000 0.000000 0.000000 0.000000 0.000000 0.000000 0.000000 -28.306782 -0.000000 0.000000 0.000000 -0.000000 0.000000 0.000000 0.000000 0.000000 0.000000 0.000000 0.000000 -28.306782 -0.000000 0.000000 0.000000 -0.000000 0.000000 0.000000 0.000000 0.000000 0.000000
65.253452 92.312182 290.238967 -0.041905 0.215334 27.300623 -0.061528 -0.210569 -27.300657 -0.000000 0.000000 0.000000 -0.000000 0.000000 0.000000 0.000000 0.000000 0.000000 -0.000000 0.000000 0.000000 -0.000000 0.000000 0.000000 -0.247191 1.736316 -0.284319 0.255920 -1.735051 0.291940 0.000000 0.000000 0.000000 0.000000 0.000000 0.000000 -0.000000 0.000000 0.000000 -0.000000 0.000000 0.000000 -0.000000 0.000000 0.000000 -0.686150 -2.538655 2.330497 0.000000 0.000000 0.000000 0.000000 0.000000 0.000000 -0.061528 -0.210569 -27.300657 -0.000000 0.000000 0.000000 -2.025511 1.889515 -0.125967 0.000000 0.000000 0.000000 -0.061528 -0.210569 -27.300657 -0.000000 0.000000 0.000000 -0.000000 0.000000 0.000000 0.000000 0.000000 0.000000
65.178966 92.347540 290.122395 -0.009190 0.471004 26.435810 -0.201463 -0.425843 -26.436521 -0.000000 0.000000 0.000000 -0.549013 -0.810726 0.053180 0.000000 0.000000 0.000000 -0.000000 0.000000 0.000000 -0.000000 0.000000 0.000000 -0.471096 3.042092 -0.464654 1.436652 -3.449052 0.825639 0.000000 0.000000 0.000000 0.000000 0.000000 0.000000 -0.000000 0.000000 0.000000 -0.000000 0.000000 0.000000 -0.463680 -0.721555 -0.448279 -0.848240 -4.042816 4.885560 0.000000 0.000000 0.000000 0.000000 0.000000 0.000000 -0.201463 -0.425843 -26.436521 -0.323792 -0.875563 -0.164439 -3.173639 4.108250 0.047353 0.000000 0.000000 0.000000 -0.201463 -0.425843 -26.436521 -0.000000 0.000000 0.000000 -0.000000 0.000000 0.000000 0.000000 0.000000 0.000000
65.191162 92.360929 289.940265 0.098199 0.766781 25.724627 -0.421305 -0.648155 -25.727667 -0.000000 0.000000 0.000000 -0.783911 -1.167465 0.071730 0.000000 0.000000 0.000000 -0.000000 0.000000 0.000000 -0.000000 0.000000 0.000000 -0.676713 3.908781 -0.542481 1.925678 -4.396448 1.030230 0.000000 0.000000 0.000000 0.000000 0.000000 0.000000 -0.000000 0.000000 0.000000 -0.000000 0.000000 0.000000 -0.588632 -0.968620 -0.586815 -1.348504 -5.558919 6.789707 0.000000 0.000000 0.000000 0.000000 0.000000 0.000000 -0.421305 -0.648155 -25.727667 -0.637054 -1.419627 -0.266771 -3.846714 5.529152 0.201701 0.000000 0.000000 0.000000 -0.421305 -0.648155 -25.727667 -0.000000 0.000000 0.000000 -0.000000 0.000000 0.000000 0.000000 0.000000 0.000000
65.290043 92.352350 289.692578 0.280164 1.102339 25.177551 -0.722578 -0.878382 -25.185785 -0.000000 0.000000 0.000000 -0.993060 -1.492568 0.085576 0.000000 0.000000 0.000000 -0.000000 0.000000 0.000000 -0.000000 0.000000 0.000000 -0.866865 4.329926 -0.519121 2.272778 -4.832127 1.077641 0.000000 0.000000 0.000000 0.000000 0.000000 0.000000 -0.000000 0.000000 0.000000 -0.000000 0.000000 0.000000 -0.645365 -1.146292 -0.670973 -1.939911 -6.561645 8.207208 0.000000 0.000000 0.000000 0.000000 0.000000 0.000000 -0.093901 -0.502422 -24.799024 -1.480658 -2.634061 -0.778339 -3.981719 6.602320 0.393560 0.000000 0.000000 0.000000 -0.722578 -0.878382 -25.185785 -0.000000 0.000000 0.000000 -0.000000 0.000000 0.000000 0.000000 0.000000 0.000000
65.475607 92.321801 289.379333 0.536454 1.477236 24.802947 -1.106844 -1.115794 -24.820641 -0.000000 0.000000 0.000000 -1.176853 -1.786529 0.095133 0.000000 0.000000 0.000000 -0.000000 0.000000 0.000000 -0.000000 0.000000 0.000000 -1.042068 4.299567 -0.395696 2.482435 -4.754904 0.959795 0.000000 0.000000 0.000000 0.000000 0.000000 0.000000 -0.000000 0.000000 0.000000 -0.000000 0.000000 0.000000 -0.634568 -1.257185 -0.701616 -2.645042 -6.959242 9.070001 0.000000 0.000000 0.000000 0.000000 0.000000 0.000000 -0.269630 -0.538801 -24.283919 -2.128421 -3.582037 -1.076934 -3.597319 7.356218 0.599148 0.000000 0.000000 0.000000 -1.106844 -1.115794 -24.820641 -0.000000 0.000000 0.000000 -0.000000 0.000000 0.000000 0.000000 0.000000 0.000000
65.997431 92.177945 288.667281 1.176593 2.294376 24.702567 -2.028433 -1.591952 -24.754314 -0.000000 0.000000 0.000000 -1.361687 -2.089732 0.102276 0.000000 0.000000 0.000000 -0.000000 0.000000 0.000000 -0.000000 0.000000 0.000000 -1.197095 3.794874 -0.171285 2.119253 -5.290720 0.949118 0.000000 0.000000 0.000000 0.000000 0.000000 0.000000 -0.000000 0.000000 0.000000 -0.000000 0.000000 0.000000 -0.602587 -1.177969 -0.660924 -1.754791 -5.905392 7.569718 0.000000 0.000000 0.000000 0.000000 0.000000 0.000000 -1.184223 -1.056223 -24.217644 -3.007736 -4.223641 -1.223175 -2.348476 7.645024 0.725224 0.000000 0.000000 0.000000 -3.169848 -2.037042 -24.844659 0.848604 0.882921 0.047664 -0.000000 0.000000 0.000000 0.000000 0.000000 0.000000
66.357747 92.107363 288.279752 1.563745 2.645258 24.741774 -2.021871 -1.103765 -24.783592 -0.190144 -0.795849 -0.021558 -1.573908 -2.360107 0.125139 0.000000 0.000000 0.000000 -0.000000 0.000000 0.000000 -0.000000 0.000000 0.000000 -1.457446 2.521539 0.308499 2.552332 -3.727587 0.375808 0.000000 0.000000 0.000000 0.000000 0.000000 0.000000 -0.000000 0.000000 0.000000 -0.000000 0.000000 0.000000 -0.112824 -1.331170 -0.477977 -3.661371 -3.747585 6.791983 0.000000 0.000000 0.000000 0.000000 0.000000 0.000000 -1.351832 -0.980666 -24.062700 -4.114463 -5.267684 -1.630335 -0.657654 7.521309 0.904676 0.000000 0.000000 0.000000 -4.196596 -2.400849 -24.955729 1.236383 1.295819 0.064950 -0.000000 0.000000 0.000000 0.000000 0.000000 0.000000
66.482770 92.095985 288.351507 1.615765 2.362546 24.931482 -1.678493 -0.742512 -24.953792 -0.407218 -0.981011 -0.030814 -1.643489 -2.571957 0.107206 0.000000 0.000000 0.000000 -0.000000 0.000000 0.000000 -0.000000 0.000000 0.000000 -1.480923 1.830946 0.492646 2.309213 -2.681353 -0.010426 0.000000 0.000000 0.000000 0.000000 0.000000 0.000000 -0.000000 0.000000 0.000000 -0.000000 0.000000 0.000000 -0.452660 -1.191834 -0.594376 -3.726451 -3.305087 6.729664 0.000000 0.000000 0.000000 0.000000 0.000000 0.000000 -0.652400 -0.265953 -23.848383 -5.362243 -6.356954 -2.217436 1.745496 6.698650 0.712639 0.000000 0.000000 0.000000 -4.181682 -2.018843 -25.133514 1.319818 1.235276 0.070899 -0.000000 0.000000 0.000000 0.000000 0.000000 0.000000
66.683024 92.095676 288.039850 1.786388 2.641845 24.904861 -1.632250 -0.760809 -24.925534 -0.627077 -1.263523 -0.043526 -1.711893 -2.725305 0.100582 0.000000 0.000000 0.000000 -0.000000 0.000000 0.000000 -0.000000 0.000000 0.000000 -1.450048 0.552563 0.788795 2.285405 -1.384145 -0.367934 0.000000 0.000000 0.000000 0.000000 0.000000 0.000000 -0.000000 0.000000 0.000000 -0.000000 0.000000 0.000000 -0.076051 -1.420218 -0.488854 -7.106967 -2.769780 8.355719 0.000000 0.000000 0.000000 0.000000 0.000000 0.000000 -0.021736 0.924610 -23.084946 -6.703147 -10.045963 -3.730718 4.798812 6.906762 0.900288 0.000000 0.000000 0.000000 -4.774518 -2.534711 -25.152585 1.468272 1.673449 0.071515 -0.000000 0.000000 0.000000 0.000000 0.000000 0.000000
66.683404 92.194594 287.981662 1.712439 2.591573 25.313340 -1.379946 -0.636269 -25.322647 -0.737921 -1.425489 -0.050905 -1.863714 -2.866058 0.126524 0.000000 0.000000 0.000000 -0.000000 0.000000 0.000000 -0.000000 0.000000 0.000000 -1.322065 -0.429761 0.953509 2.107003 -0.193887 -0.651186 0.000000 0.000000 0.000000 0.000000 0.000000 0.000000 -0.000000 0.000000 0.000000 -0.000000 0.000000 0.000000 -0.106647 -1.449473 -0.512662 -7.334185 -2.430189 8.328141 0.000000 0.000000 0.000000 0.000000 0.000000 0.000000 0.690166 1.842975 -22.999055 -7.465674 -12.246757 -4.724650 6.389917 6.519904 1.632399 0.000000 0.000000 0.000000 -4.739677 -2.610818 -25.556826 1.447217 1.800400 0.068001 -0.000000 0.000000 0.000000 0.000000 0.000000 0.000000
66.465189 92.390239 288.224613 1.395822 2.186667 25.939926 -0.970734 -0.407811 -25.933081 -0.702101 -1.394666 -0.049094 -1.750926 -2.789100 0.101598 0.000000 0.000000 0.000000 -0.000000 0.000000 0.000000 -0.000000 0.000000 0.000000 -0.922594 -1.533158 0.982524 1.670986 2.155574 -1.129959 0.000000 0.000000 0.000000 0.000000 0.000000 0.000000 -0.000000 0.000000 0.000000 -0.000000 0.000000 0.000000 0.521050 -1.110948 -0.109226 -5.789228 -1.830565 5.866716 0.000000 0.000000 0.000000 0.000000 0.000000 0.000000 1.668055 2.813720 -23.225598 -7.701574 -13.720135 -5.422800 5.129065 7.957327 2.095962 0.000000 0.000000 0.000000 -3.997659 -2.258604 -26.124035 1.205472 1.596358 0.058214 -0.000000 0.000000 0.000000 0.000000 0.000000 0.000000
